<svg width="409" height="300" viewBox="0 0 409 300" fill="none" xmlns="http://www.w3.org/2000/svg">
<path fill-rule="evenodd" clip-rule="evenodd" d="M100.34 234.449C97.3413 237.447 97.2363 239.899 99.9583 243.359C102.722 246.874 108.996 247.101 111.328 243.771C116.747 236.035 107.013 227.775 100.34 234.449Z" fill="#16A34A"/>
<path fill-rule="evenodd" clip-rule="evenodd" d="M272 264.343V293.843H278H284V281.243V268.643L287.4 265.243C291.712 260.931 296.812 260.564 300.545 264.298C302.91 266.662 303 267.249 303 280.298V293.843H309H315V277.991C315 263.175 314.852 261.917 312.73 258.741C307.003 250.168 294.002 249.536 286.643 257.472L284 260.323V247.583V234.843H278H272V264.343Z" fill="#E6EEF5"/>
<path fill-rule="evenodd" clip-rule="evenodd" d="M347 264.343V293.843H353H359V264.343V234.843H353H347V264.343Z" fill="#E6EEF5"/>
<path d="M15.4014 234.043C29.655 234.477 31.2194 234.716 36.4023 237.251C44.1231 241.029 47.4999 246.686 47.5 255.843C47.5 261.159 46.9911 263.21 44.7041 267.1C40.6461 274.003 34.576 276.85 22.3584 277.579L13 278.138V293.843H0V233.575L15.4014 234.043ZM13 244V268H19.0986C26.7014 268 31.3448 265.9 33.4229 261.522C36.4758 255.089 34.2892 247.854 28.5684 245.464C26.6414 244.659 22.3502 244 19.0322 244H13Z" fill="#16A34A"/>
<path d="M232.322 234.843C249.32 234.843 254.191 236.098 259.347 241.805C267.939 251.315 265.365 268.583 254.577 273.806C249.883 276.078 241.06 277.828 234.25 277.837L230 277.843V293.843H218V234.843H232.322ZM230 268.055L237.984 267.692C245.125 267.368 246.26 267.038 248.734 264.564C251.136 262.162 251.5 261.014 251.5 255.843C251.5 250.672 251.136 249.524 248.734 247.122C246.26 244.648 245.125 244.318 237.984 243.994L230 243.631V268.055Z" fill="#E6EEF5"/>
<path fill-rule="evenodd" clip-rule="evenodd" d="M130.45 252.25C122.112 255.881 119.163 266.16 124.833 271.83C127.626 274.623 130.182 275.613 140.99 278.086C145.047 279.015 146.575 279.848 146.848 281.277C147.693 285.7 139.747 287.187 130.409 284.354C127.709 283.535 125.246 282.86 124.935 282.854C123.955 282.835 120.941 289.938 121.526 290.886C122.651 292.706 132.556 294.843 139.866 294.843C152.561 294.843 159 290.194 159 281.028C159 276.547 156.161 272.263 152.119 270.646C150.678 270.069 146.131 268.865 142.014 267.97C134.226 266.277 132.375 264.506 135.04 261.295C136.601 259.414 144.476 259.394 149.761 261.259L153.772 262.674L155.553 258.725C156.613 256.374 156.963 254.441 156.417 253.946C152.973 250.828 136.227 249.733 130.45 252.25Z" fill="#16A34A"/>
<path fill-rule="evenodd" clip-rule="evenodd" d="M100 273V294H106H112V273V252H106H100V273Z" fill="#16A34A"/>
<path fill-rule="evenodd" clip-rule="evenodd" d="M380.625 252.312C395.052 247.171 408.91 256.35 408.978 271.094L409 275.844H394.559C386.215 275.844 379.865 276.256 379.513 276.822C378.547 278.384 380.856 281.785 384.314 283.893C388.072 286.185 393.73 286.401 398.441 284.432C401.582 283.12 401.954 283.173 403.76 285.182C407.479 289.32 407.382 289.786 402.324 292.059C391.128 297.093 376.82 293.933 370.573 285.045C362.814 274.004 368.104 256.775 380.625 252.312ZM395.701 261.399C390.252 256.814 382.432 259.065 380.048 265.904L379 268.911H399.619L399.139 266.399C398.875 265.018 397.328 262.768 395.701 261.399Z" fill="#E6EEF5"/>
<path fill-rule="evenodd" clip-rule="evenodd" d="M171.799 252.429C177.877 250.559 190.134 250.445 194.282 252.22C198.174 253.885 202.489 258.326 203.936 262.157C204.521 263.705 204.999 271.424 204.999 279.311V293.649L199.994 293.995C193.618 294.437 192.999 294.195 192.999 291.26C192.999 289.931 192.549 288.843 191.999 288.843C191.45 288.843 191 289.209 190.999 289.658C190.999 291.531 183.064 294.843 178.574 294.843C165.591 294.843 158.873 283.089 166.604 273.901C169.75 270.162 174.316 268.856 184.249 268.849C191.279 268.844 191.999 268.661 191.999 266.882C191.999 261.656 183.897 258.895 175.242 261.171L169.985 262.554L167.922 259.217C166.788 257.381 166.138 255.428 166.479 254.877C166.82 254.326 169.214 253.224 171.799 252.429ZM188.749 275.684C185.118 275.262 179.074 276.061 177.216 277.209C175.498 278.271 175.706 282.405 177.571 284.271C178.473 285.172 180.837 285.843 183.117 285.843C187.79 285.843 191.999 282.362 191.999 278.498C191.999 276.494 191.423 275.995 188.749 275.684Z" fill="#16A34A"/>
<path fill-rule="evenodd" clip-rule="evenodd" d="M58.3936 252.262C64.7036 250.287 76.7241 250.535 81.5791 252.739C90.182 256.647 92.1763 262.182 91.7793 281.059L91.5 294.343L86.2393 294.646C82.5715 294.857 80.8591 294.554 80.585 293.646C78.942 288.2 79.1456 288.363 76.7236 290.568C73.1718 293.803 70.4479 294.843 65.5342 294.843C56.4132 294.843 50.0119 289.567 50.0039 282.042C49.9941 273.197 56.693 268.843 70.3154 268.843C79.6083 268.843 80.4147 268.308 77.4629 264.094C74.5809 259.978 65.9613 259.235 57.7334 262.392C56.5694 262.839 55.5592 261.898 54.0703 258.98C51.7784 254.487 51.902 254.294 58.3936 252.262ZM72.1553 275.843C66.5056 275.843 64.9834 276.204 63.4385 277.911C61.7375 279.791 61.701 280.22 63.0479 282.62C66.7098 289.144 78.9999 285.764 79 278.232C79 275.946 78.7051 275.843 72.1553 275.843Z" fill="#16A34A"/>
<path fill-rule="evenodd" clip-rule="evenodd" d="M331.646 242.099C331.556 242.704 331.481 244.836 331.481 246.838V250.478H328.241H325V270.855V291.233L326.491 291.235C327.311 291.236 328.769 291.304 329.731 291.387L331.481 291.538V295.769C331.481 299.826 331.502 300 331.994 300C332.484 300 332.51 299.804 332.577 295.676L332.648 291.351L335.824 291.285L339 291.218V270.855V250.493L335.824 250.426L332.648 250.359L332.578 245.68C332.522 241.953 332.437 241 332.159 241C331.942 241 331.749 241.412 331.646 242.099Z" fill="#16A34A"/>
<circle cx="331.75" cy="238.75" r="3.75" fill="#E6EEF5"/>
<path fill-rule="evenodd" clip-rule="evenodd" d="M100.929 6.59326C88.3296 19.9033 80.6116 30.9043 77.0826 40.5813C68.7776 63.3583 86.0616 90.2443 115.578 100.462C123.339 103.149 124.355 103.244 151.068 103.798C180.54 104.409 181.742 104.618 186.751 109.998C192.933 116.637 192.481 129.159 185.828 135.576C181.187 140.052 178.286 140.843 166.503 140.843H156.068V126.479V112.115L141.318 111.568C133.205 111.267 122.782 110.227 118.155 109.257C111.191 107.797 108.647 107.68 103.389 108.581C97.2346 109.635 86.6526 113.999 82.5676 117.167C80.6166 118.68 80.6876 118.84 85.4376 123.687C94.3296 132.758 104.616 136.811 118.805 136.831L127.041 136.843L127.305 170.072L127.568 203.302L141.818 209.508L156.068 215.714L156.206 207.528C156.282 203.026 156.394 192.593 156.456 184.343L156.568 169.343L169.568 168.774C188.671 167.939 196.884 164.976 207.097 155.234C216.552 146.215 221.035 134.819 221.056 119.748C221.083 100.068 210.913 84.6493 192.954 77.1453C186.771 74.5623 185.724 74.4543 160.068 73.7703C126.684 72.8793 120.77 71.3493 109.494 60.6843C103.76 55.2623 100.549 49.0053 99.5466 41.3023C98.8256 35.7573 101.521 20.7913 105.493 8.28326C106.792 4.19126 107.522 0.843262 107.114 0.843262C106.706 0.843262 103.923 3.43126 100.929 6.59326Z" fill="#E6EEF5"/>
<path fill-rule="evenodd" clip-rule="evenodd" d="M299.851 0.393018C301.042 -0.797982 302.15 0.214214 311.026 10.5932C332.356 35.5381 337.273 48.255 332.083 65.06C328.305 77.292 317.387 90.0296 302.067 100.081C297.942 102.787 294.679 105.219 294.815 105.484C294.951 105.75 298.102 106.076 301.815 106.21C310.071 106.509 316.605 108.634 324.82 113.689L331.072 117.536L328.243 121.439C322.863 128.864 312.42 135.007 301.731 137.035C295.366 138.243 295.239 138.33 294.052 142.303C288.601 160.55 273.55 170.843 252.32 170.843H244.067V203.393L232.817 209.526C220.8 216.078 209.462 221.843 208.597 221.843C208.306 221.843 208.067 208.721 208.067 192.683V163.524L213.458 157.873C231.775 138.67 233.016 107.22 216.288 86.2036C214.038 83.3776 210.377 79.7776 208.153 78.2036C205.93 76.6312 204.102 75.006 204.089 74.5932C204.078 74.1812 218.58 73.8337 236.317 73.8227C254.055 73.8117 271.717 73.3493 275.567 72.7954C289.147 70.8404 300.731 62.9811 305.709 52.3432C309.913 43.3583 308.551 28.1538 301.748 8.14302C300.402 4.18369 299.548 0.697051 299.851 0.393018ZM251.522 106.002C242.2 105.657 241.226 105.792 240.761 107.483C240.48 108.506 240.383 113.843 240.545 119.343C240.707 124.843 240.892 132.831 240.954 137.093L241.067 144.843H249.855C260.21 144.843 265.594 142.678 270.465 136.556C272.929 133.459 273.551 131.621 273.879 126.473C274.384 118.547 271.86 113.058 265.9 109.114C262.219 106.677 260.668 106.341 251.522 106.002Z" fill="#16A34A"/>
</svg>
